<svg id="Capa_1" enable-background="new 0 0 512 512" height="512" viewBox="0 0 512 512" width="512" xmlns="http://www.w3.org/2000/svg" xmlns:xlink="http://www.w3.org/1999/xlink"><linearGradient id="SVGID_1_" gradientUnits="userSpaceOnUse" x1="256" x2="256" y1="481" y2="31"><stop offset="0" stop-color="#00b59c"/><stop offset="1" stop-color="#9cffac"/></linearGradient><g><g><path d="m505.632 357.694-54.698-137.248c-2.273-5.703-7.793-9.446-13.934-9.446h-76v-75c0-1.656-.341-3.455-.77-4.744l-30-90c-4.542-13.623-23.91-13.65-28.461 0l-30 90c-.454 1.367-.77 3.127-.77 4.744v75h-30v-165c0-8.284-6.716-15-15-15h-90c-8.284 0-15 6.716-15 15v165h-39.786l-25.606-25.606c-5.857-5.858-15.355-5.858-21.213 0s-5.858 15.355 0 21.213l23.016 23.016-51.042 128.071c-4.225 10.603-6.368 21.809-6.368 33.306 0 49.626 40.374 90 90 90h332c49.626 0 90-40.374 90-90 0-11.497-2.143-22.703-6.368-33.306zm-189.632-264.26 9.189 27.566h-18.377zm-15 57.566h30v60h-30zm-150 30h15c8.284 0 15-6.716 15-15s-6.716-15-15-15h-15v-30h15c8.284 0 15-6.716 15-15s-6.716-15-15-15h-15v-30h60v150h-60zm271 270h-332c-33.084 0-60-26.916-60-60 0-7.676 1.425-15.146 4.236-22.199l50.933-127.801h341.661l50.933 127.801c2.812 7.053 4.237 14.523 4.237 22.199 0 33.084-26.916 60-60 60zm-16-150h-300c-8.284 0-15 6.716-15 15s6.716 15 15 15h15v15c0 8.284 6.716 15 15 15s15-6.716 15-15v-15h255c8.284 0 15-6.716 15-15s-6.716-15-15-15z" fill="url(#SVGID_1_)"/></g></g></svg>