<svg width="32" height="35" viewBox="0 0 32 35" fill="none" xmlns="http://www.w3.org/2000/svg">
<path d="M31.3841 22.6547L27.5049 14.8774C26.9786 13.8214 25.9694 13.0836 24.8061 12.9042L17.0753 11.7115H17.0746C15.4752 11.4672 13.8666 12.264 13.0924 13.6847L10.7157 8.9183C11.308 7.98239 11.6363 6.93 11.6363 5.83331C11.6363 2.61687 9.02629 0 5.81821 0C2.61013 0 0 2.61687 0 5.83331C0 8.8872 2.36086 11.3724 5.34462 11.6187L12.115 25.1947C12.279 25.523 12.1476 25.8 12.083 25.904C12.019 26.0079 11.8309 26.2501 11.4644 26.2501H5.40121C4.02701 26.25 2.9091 27.3708 2.9091 28.7487C2.9091 29.1339 2.99999 29.5206 3.17187 29.8666L3.7131 30.9511C3.80187 31.1285 3.95814 31.2616 4.14708 31.3207L14.4198 34.5393C15.3942 34.8448 16.4063 35 17.4276 35C18.9852 35 20.5448 34.6311 21.9368 33.9326L28.7741 30.5054C30.7642 29.5085 32 27.5026 32 25.2716C31.9999 24.3687 31.7869 23.4637 31.3841 22.6547ZM1.45459 5.83331C1.45459 3.42077 3.41194 1.45831 5.81821 1.45831C8.22447 1.45831 10.1818 3.42077 10.1818 5.83331C10.1818 6.33951 10.0849 6.83361 9.91115 7.30516L8.54479 4.56511C8.03765 3.54826 7.01779 2.91662 5.88359 2.91662C4.24362 2.91669 2.9091 4.25469 2.9091 6.0306C2.9091 6.49202 3.01778 6.95345 3.22301 7.36429L4.53373 9.99264C2.75692 9.43893 1.45459 7.79468 1.45459 5.83331ZM28.1235 29.2009L21.2862 32.6281C19.3139 33.6178 16.9602 33.8094 14.8536 33.1479L4.87566 30.0211L4.47298 29.215C4.40126 29.0704 4.36362 28.9095 4.36362 28.7486C4.36362 28.1747 4.82882 27.7082 5.40128 27.7082H11.4645C12.2265 27.7082 12.9204 27.3202 13.321 26.6708C13.7209 26.0213 13.7571 25.2252 13.4162 24.5424L4.52344 6.71132C4.41905 6.50193 4.36362 6.2663 4.36362 5.89887C4.36362 5.05859 5.04544 4.375 5.88352 4.375C6.46307 4.375 6.98438 4.69759 7.24361 5.21739L12.4403 15.6386C12.6875 16.1328 13.4957 16.1328 13.7415 15.6386L14.3274 14.463C14.7955 13.5273 15.8317 12.9961 16.8537 13.1528L24.5844 14.3455C25.2826 14.453 25.8877 14.8959 26.2037 15.5297L30.083 23.307C30.3856 23.9137 30.5453 24.593 30.5453 25.2716C30.5453 26.9464 29.6171 28.4525 28.1235 29.2009Z" fill="#2F2F2F"/>
</svg>
