<svg width="44" height="32" viewBox="0 0 44 32" fill="none" xmlns="http://www.w3.org/2000/svg">
<path d="M35.6211 10.2309H32.8509L33.6856 0.696751C33.6871 0.67948 33.6874 0.662465 33.6875 0.64545C33.6875 0.643997 33.6876 0.642628 33.6876 0.641175C33.6876 0.640918 33.6876 0.640748 33.6876 0.640491C33.6876 0.380995 33.5303 0.152278 33.299 0.0528402C33.297 0.0519852 33.2952 0.0509593 33.2932 0.0501043C33.2788 0.0441192 33.264 0.0389889 33.249 0.0340298C33.2434 0.0322342 33.2381 0.0300111 33.2325 0.0283011C33.2203 0.0246245 33.2078 0.0217175 33.1953 0.018725C33.1865 0.0166729 33.1781 0.0141935 33.1693 0.0124835C33.1583 0.010346 33.147 0.00897817 33.1358 0.00735365C33.1253 0.00581462 33.115 0.00401883 33.1045 0.00307832C33.1027 0.00290731 33.101 0.00256503 33.0992 0.00239403C33.0879 0.00136801 33.0767 0.00153907 33.0654 0.00111156C33.0579 0.000855055 33.0505 0 33.0429 0H33.0348C33.0342 0 33.0335 0 33.0329 0H19.8525C19.4967 0 19.208 0.287285 19.208 0.64126C19.208 0.994381 19.4967 1.28252 19.8525 1.28252H32.3404L31.0577 15.9353C31.0575 15.9364 31.0575 15.9375 31.0573 15.9387L30.7337 19.6358H8.33752L8.71212 15.7884H12.9764C13.3325 15.7884 13.621 15.5013 13.621 15.1472C13.621 14.793 13.3325 14.5059 12.9764 14.5059H8.83707L9.62805 6.3837H16.415C16.771 6.3837 17.0595 6.09659 17.0595 5.74244C17.0595 5.3883 16.771 5.10118 16.415 5.10118H9.753L10.1249 1.28252H17.2744C17.6293 1.28252 17.9189 0.994381 17.9189 0.64126C17.9189 0.287285 17.6293 0 17.2744 0H9.53996C9.53962 0 9.53936 8.54544e-05 9.53901 8.54544e-05C9.23625 -4.69714e-08 8.97363 0.212044 8.91012 0.505998C8.90969 0.508135 8.90892 0.510187 8.90849 0.512325C8.90522 0.528313 8.90307 0.544644 8.90092 0.56106C8.90032 0.566276 8.89921 0.571235 8.89869 0.576451C8.8986 0.577477 8.89835 0.578417 8.89826 0.579443L8.45792 5.10118H0.644534C0.288493 5.10118 0 5.3883 0 5.74244C0 6.09659 0.288493 6.3837 0.644534 6.3837H8.33296L7.54199 14.5059H5.24238C4.88634 14.5059 4.59785 14.793 4.59785 15.1472C4.59785 15.5013 4.88634 15.7884 5.24238 15.7884H7.41712L6.9864 20.2106C6.98632 20.2113 6.98632 20.212 6.98623 20.2126L6.3203 27.0509C6.32021 27.0517 6.32013 27.0525 6.32004 27.0532L6.31978 27.0557C6.31892 27.0646 6.31901 27.0733 6.31849 27.0822C6.31789 27.094 6.31669 27.1056 6.31669 27.1175C6.31669 27.118 6.31677 27.1186 6.31677 27.1192C6.31677 27.1357 6.31798 27.1519 6.31918 27.1681C6.3197 27.1734 6.31952 27.1787 6.32013 27.1838C6.32185 27.2004 6.32468 27.2167 6.32769 27.233C6.32855 27.2377 6.32898 27.2426 6.32992 27.2473C6.33242 27.2596 6.33594 27.2715 6.3392 27.2836C6.34144 27.292 6.34324 27.3007 6.34582 27.309C6.3466 27.3113 6.34763 27.3135 6.34831 27.3159C6.37951 27.4113 6.43245 27.497 6.50154 27.5669C6.50283 27.5682 6.50386 27.5697 6.50515 27.5709C6.51203 27.5777 6.5195 27.5839 6.52672 27.5904C6.57115 27.6309 6.62134 27.6653 6.67625 27.6922C6.68768 27.6978 6.69894 27.7037 6.71063 27.7086C6.71415 27.7101 6.71793 27.7112 6.72154 27.7125C6.7377 27.7189 6.75394 27.7251 6.7707 27.7303C6.77225 27.7307 6.77371 27.731 6.77525 27.7315C6.79433 27.7372 6.81358 27.7421 6.83326 27.7461C6.83584 27.7466 6.8385 27.7468 6.841 27.7473C6.85973 27.7508 6.87855 27.7538 6.89771 27.7557C6.89814 27.7557 6.89849 27.7558 6.89892 27.7559C6.92006 27.7579 6.94103 27.759 6.96182 27.759C6.96208 27.759 6.96243 27.7589 6.96277 27.7589H9.83206C10.1489 30.1489 12.2084 32 14.6959 32C17.1832 32 19.2427 30.1489 19.5595 27.7589H29.8978C30.2147 30.1489 32.2741 32 34.7615 32C37.2488 32 39.3085 30.1489 39.6254 27.7589H42.4954C42.4958 27.7589 42.4963 27.759 42.4968 27.759C42.5183 27.759 42.5394 27.7577 42.5604 27.7556C42.5642 27.7553 42.5678 27.7545 42.5715 27.7541C42.5883 27.7521 42.605 27.7498 42.6213 27.7466C42.6283 27.7452 42.6351 27.7433 42.6421 27.7417C42.6547 27.7388 42.6674 27.7357 42.6798 27.732C42.6882 27.7295 42.6964 27.7266 42.7047 27.7238C42.7152 27.7202 42.7258 27.7165 42.7362 27.7123C42.7451 27.7088 42.7536 27.7049 42.7623 27.7011C42.7718 27.6967 42.7812 27.6923 42.7904 27.6876C42.7992 27.6831 42.8076 27.6785 42.816 27.6737C42.8249 27.6686 42.8337 27.6633 42.8423 27.6578C42.8504 27.6527 42.8585 27.6475 42.8662 27.642C42.875 27.6359 42.8833 27.6295 42.8918 27.623C42.8989 27.6175 42.906 27.612 42.9129 27.6062C42.9217 27.5987 42.9301 27.591 42.9385 27.583C42.9443 27.5774 42.9504 27.572 42.9561 27.5662C42.965 27.5571 42.9736 27.5475 42.9821 27.5379C42.9866 27.5326 42.9913 27.5276 42.9957 27.5223C43.0052 27.5107 43.0138 27.4987 43.0224 27.4866C43.0253 27.4824 43.0286 27.4785 43.0314 27.4742C43.0419 27.4586 43.0518 27.4425 43.0609 27.4259C43.0616 27.4249 43.0622 27.424 43.0627 27.4229C43.0724 27.4051 43.0813 27.3869 43.0893 27.368C43.0916 27.3627 43.0933 27.3571 43.0954 27.3517C43.1007 27.3385 43.1058 27.3252 43.1102 27.3114C43.113 27.3026 43.1151 27.2934 43.1176 27.2844C43.1204 27.2737 43.1234 27.2631 43.1258 27.2523C43.128 27.2426 43.1294 27.2327 43.131 27.2229C43.1325 27.2142 43.1343 27.2058 43.1355 27.197C43.1628 26.9791 43.6675 22.9504 43.8929 20.3453C43.8932 20.3428 43.8933 20.3403 43.8935 20.3378C43.9584 19.5868 44 18.9545 44 18.5673C44 13.9707 40.2412 10.2309 35.6211 10.2309ZM32.7386 11.5136H35.3755L35.0387 15.3608H32.4018L32.7386 11.5136ZM14.6961 30.7174C12.7008 30.7174 11.0776 29.1024 11.0776 27.1174C11.0776 25.1324 12.7009 23.5175 14.6961 23.5175C16.6912 23.5175 18.3144 25.1324 18.3144 27.1174C18.3144 29.1024 16.6912 30.7174 14.6961 30.7174ZM34.7615 30.7174C32.7664 30.7174 31.1433 29.1024 31.1433 27.1174C31.1433 25.1324 32.7665 23.5175 34.7615 23.5175C36.7567 23.5175 38.3799 25.1324 38.3799 27.1174C38.3799 29.1024 36.7567 30.7174 34.7615 30.7174ZM41.9259 26.4759H39.6256C39.3088 24.0857 37.2492 22.2345 34.7617 22.2345C32.2743 22.2345 30.2147 24.0858 29.8979 26.4759H19.5598C19.243 24.0857 17.1835 22.2345 14.6961 22.2345C12.2086 22.2345 10.1489 24.0858 9.83215 26.4759H7.67133L8.21265 20.918H31.3243V20.9183C31.3247 20.9183 31.3249 20.9183 31.3253 20.9183C31.3469 20.9183 31.3683 20.9171 31.3894 20.915C31.3933 20.9147 31.3972 20.9138 31.4012 20.9133C31.418 20.9113 31.4348 20.9089 31.4513 20.9057C31.4584 20.9042 31.4654 20.9023 31.4724 20.9006C31.4853 20.8975 31.4982 20.8945 31.5107 20.8907C31.5193 20.8882 31.5275 20.8851 31.5358 20.8822C31.5467 20.8784 31.5575 20.8747 31.568 20.8705C31.577 20.8668 31.5857 20.8627 31.5944 20.8586C31.604 20.8542 31.6135 20.8499 31.6227 20.8451C31.6315 20.8404 31.6401 20.8355 31.6488 20.8305C31.6576 20.8254 31.6664 20.8202 31.675 20.8147C31.6833 20.8093 31.6912 20.8037 31.6992 20.798C31.7077 20.7921 31.716 20.7859 31.7242 20.7795C31.7316 20.7736 31.7389 20.7675 31.7461 20.7613C31.7543 20.7543 31.7623 20.7471 31.77 20.7396C31.7765 20.7334 31.7831 20.727 31.7894 20.7204C31.7972 20.7124 31.8046 20.7041 31.812 20.6956C31.8178 20.6889 31.8235 20.6823 31.829 20.6754C31.8361 20.6665 31.8429 20.6572 31.8496 20.6479C31.8547 20.6409 31.8596 20.6339 31.8644 20.6267C31.8706 20.617 31.8767 20.6071 31.8824 20.597C31.8868 20.5895 31.8913 20.582 31.8952 20.5743C31.9006 20.5642 31.9053 20.5539 31.9102 20.5436C31.914 20.5353 31.9178 20.5272 31.9213 20.5186C31.9255 20.5085 31.929 20.4982 31.9327 20.4878C31.9359 20.4787 31.9392 20.4695 31.9421 20.4601C31.9449 20.4502 31.9472 20.44 31.9498 20.43C31.9523 20.4198 31.955 20.4097 31.957 20.3993C31.959 20.3893 31.9602 20.379 31.9617 20.3687C31.9633 20.3581 31.9651 20.3477 31.9661 20.3369C31.9663 20.3354 31.9666 20.3339 31.9667 20.3324L32.2898 16.643H35.6209C37.5957 16.643 38.4863 17.661 39.4291 18.7388C40.2071 19.6281 41.0757 20.6204 42.5521 20.8624C42.3646 22.8349 42.0615 25.3671 41.9259 26.4759ZM42.6623 19.5773C41.7045 19.3831 41.1152 18.7132 40.4014 17.8971C39.5085 16.8767 38.4186 15.6314 36.3292 15.3993L36.6626 11.5904C40.0799 12.0932 42.7109 15.03 42.7109 18.5675C42.7109 18.8078 42.6929 19.157 42.6623 19.5773Z" fill="black"/>
</svg>
